<?xml version="1.0" encoding="UTF-8"?>
<svg version="1.1" xmlns="http://www.w3.org/2000/svg" width="256" height="256">
<path d="M0 0 C84.48 0 168.96 0 256 0 C256 84.48 256 168.96 256 256 C171.52 256 87.04 256 0 256 C0 171.52 0 87.04 0 0 Z " fill="#FE815F" transform="translate(0,0)"/>
<path d="M0 0 C12.30959047 -0.06796835 24.61905485 -0.12292698 36.92879105 -0.15543652 C42.64563255 -0.17104501 48.36233821 -0.19219485 54.07910156 -0.22631836 C59.60341464 -0.2590841 65.12759762 -0.27688918 70.65200043 -0.28463173 C72.75216467 -0.29014446 74.85232236 -0.30090892 76.95243073 -0.31719017 C96.38432119 -0.46174905 111.98191063 1.5200506 126.70703125 15.44921875 C135.34655873 25.06014114 139.74849674 36.56917083 139.4140625 49.4296875 C138.29119428 59.11177765 135.29977488 68.58267599 128.94140625 76.10546875 C127.71292044 78.049937 127.71292044 78.049937 128.69140625 80.51953125 C129.81381478 82.64708174 130.98098705 84.54660606 132.375 86.5 C138.34124159 95.95392585 140.52032838 106.97177183 139 118 C135.92061887 130.9944846 129.34357711 141.51944871 118.48828125 149.46875 C108.47820507 155.62879688 97.90115493 158.3232261 86.27929688 158.22705078 C85.34178589 158.22734283 84.4042749 158.22763489 83.43835449 158.22793579 C80.36505612 158.22655165 77.29200559 158.21103376 74.21875 158.1953125 C72.07784152 158.19157911 69.93693132 158.18873368 67.79602051 158.18673706 C62.18020859 158.17912626 56.56450126 158.15949977 50.94873047 158.1373291 C45.21062637 158.11681556 39.47250525 158.10772359 33.734375 158.09765625 C22.48953015 158.0762514 11.24479016 158.04109014 0 158 C0 147.44 0 136.88 0 126 C2.3925 125.62875 4.785 125.2575 7.25 124.875 C19.39390851 122.70882939 29.94655291 117.59737218 38 108 C45.86661614 95.85191643 48.52278364 83.25113298 47 69 C44.99020882 60.39558153 41.01420252 53.41767104 35 47 C34.41605469 46.37480469 33.83210938 45.74960938 33.23046875 45.10546875 C23.58063032 35.78067751 13.12922381 33.8756034 0 32 C0 21.44 0 10.88 0 0 Z " fill="#FDE4DE" transform="translate(58,49)"/>
<path d="M0 0 C15.1322774 0 15.1322774 0 21.4375 2.0625 C22.14922363 2.28583008 22.86094727 2.50916016 23.59423828 2.73925781 C44.41393378 9.56006289 61.0359357 23.16742866 71.3125 42.578125 C73.63615117 47.2899732 75.52847382 51.95808663 77 57 C77.22429687 57.72574219 77.44859375 58.45148438 77.6796875 59.19921875 C82.40699719 77.75229034 78.77026692 99.24330333 70 116 C57.56021132 136.85023707 39.29786203 149.01415132 16 155 C12 156 12 156 0 156 C0 145.77 0 135.54 0 125 C4.95 124.01 9.9 123.02 15 122 C28.32834007 116.45752195 36.52361409 109.36579898 42.625 96.4296875 C47.1512845 85.13969377 48.08675761 72.5253938 43.9375 60.9375 C41.3949471 55.25960799 38.24833783 50.53334162 34 46 C33.41605469 45.37480469 32.83210938 44.74960938 32.23046875 44.10546875 C22.92355027 35.11204648 12.60819235 32.9397219 0 31 C0 20.77 0 10.54 0 0 Z " fill="#FEFEFD" transform="translate(59,50)"/>
<path d="M0 0 C2.70894767 -0.08144943 5.41541263 -0.14070614 8.125 -0.1875 C8.88554687 -0.21263672 9.64609375 -0.23777344 10.4296875 -0.26367188 C16.10709798 -0.33708667 20.32822814 0.50592318 24.64453125 4.53515625 C28.47774146 9.54781575 29.64000064 12.65925295 29 19 C27.14143173 24.26594344 24.39685804 26.79395768 20 30 C16.52217417 31.15927528 13.81196743 31.11313066 10.14453125 31.09765625 C9.15207649 31.09553383 9.15207649 31.09553383 8.13957214 31.09336853 C6.03050172 31.08777996 3.92153823 31.07522965 1.8125 31.0625 C0.38086091 31.05748352 -1.05077985 31.05292087 -2.48242188 31.04882812 C-5.98831588 31.0378143 -9.4941475 31.02055755 -13 31 C-11.83255202 28.65086686 -10.64153735 26.32280579 -9.4140625 24.00390625 C-5.32508282 16.13842349 -2.29888435 8.59582844 0 0 Z " fill="#FE8260" transform="translate(136,144)"/>
<path d="M0 0 C4.30495015 -0.09935088 8.60928183 -0.17169268 12.91503906 -0.21972656 C14.37772252 -0.23976332 15.84032666 -0.26700104 17.30273438 -0.30175781 C19.4129601 -0.35063225 21.52212136 -0.37304659 23.6328125 -0.390625 C24.90012207 -0.41157227 26.16743164 -0.43251953 27.47314453 -0.45410156 C32.79934176 0.23167491 35.82464006 2.66580764 39.3125 6.625 C42.2181872 10.71448568 42.49809505 14.0651694 42 19 C40.14143173 24.26594344 37.39685804 26.79395768 33 30 C30.29283758 30.90238747 28.76223232 31.11851302 25.98828125 31.09765625 C24.85229492 31.09282227 24.85229492 31.09282227 23.69335938 31.08789062 C22.90767578 31.07951172 22.12199219 31.07113281 21.3125 31.0625 C20.51521484 31.05798828 19.71792969 31.05347656 18.89648438 31.04882812 C16.93095743 31.0370585 14.96546915 31.01912348 13 31 C12.79246094 30.14019531 12.58492187 29.28039062 12.37109375 28.39453125 C10.00475768 19.31532548 6.69933366 12.12544884 2 4 C1.3267616 2.66997283 0.65879949 1.33723799 0 0 Z " fill="#FE8160" transform="translate(123,81)"/>
<path d="M0 0 C5.28 0 10.56 0 16 0 C16.63187957 3.79127743 17.12699529 6.78263494 17.1328125 10.49609375 C17.13474609 11.70555664 17.13474609 11.70555664 17.13671875 12.93945312 C17.13285156 13.76380859 17.12898438 14.58816406 17.125 15.4375 C17.13080078 16.66823242 17.13080078 16.66823242 17.13671875 17.92382812 C17.13542969 18.73142578 17.13414062 19.53902344 17.1328125 20.37109375 C17.13168457 21.09224365 17.13055664 21.81339355 17.12939453 22.55639648 C16.96175462 25.72226044 16.44834803 28.8615638 16 32 C10.72 32 5.44 32 0 32 C0 21.44 0 10.88 0 0 Z " fill="#DFC8C2" transform="translate(137,112)"/>
<path d="M0 0 C31.68 0 63.36 0 96 0 C96 0.33 96 0.66 96 1 C61.35 1.495 61.35 1.495 26 2 C28.64 2.66 31.28 3.32 34 4 C47.81035595 8.47056883 60.2131697 13.91309764 70.4375 24.4375 C75.07451163 29.17835762 78.62889216 31.03577673 85.3125 31.25 C87.54305957 31.22293558 89.77502356 31.16002597 92 31 C92 31.33 92 31.66 92 32 C65.72362381 34.08861443 65.72362381 34.08861443 60.04296875 29.57421875 C57.29215331 26.68091032 55.20967038 23.31242491 53 20 C38.40482204 6.92969138 19.96139537 2.45856887 1 1 C1 11.23 1 21.46 1 32 C0.67 32 0.34 32 0 32 C0 21.44 0 10.88 0 0 Z " fill="#E8C6BD" transform="translate(58,49)"/>
<path d="M0 0 C6.93 0.495 6.93 0.495 14 1 C0.92303942 17.518266 -16.25431966 24.08901188 -36 31 C-2.34 31.495 -2.34 31.495 32 32 C32 32.33 32 32.66 32 33 C0.32 33 -31.36 33 -64 33 C-64 22.44 -64 11.88 -64 1 C-63.67 1 -63.34 1 -63 1 C-63 11.23 -63 21.46 -63 32 C-39.2467781 29.49966085 -17.86882161 22.55441818 -2.171875 3.59375 C-0.92667647 1.99464631 -0.92667647 1.99464631 0 0 Z " fill="#E8C4BA" transform="translate(122,174)"/>
<path d="M0 0 C6.28260706 -0.23268915 11.88019467 0.59545452 18 2 C18.33 3.32 18.66 4.64 19 6 C18.29875 5.80664062 17.5975 5.61328125 16.875 5.4140625 C11.26507866 3.874383 5.64989553 2.38582343 0 1 C0 0.67 0 0.34 0 0 Z " fill="#E4D1CC" transform="translate(72,50)"/>
<path d="M0 0 C-5.95296558 3.43440322 -12.33678156 3.13326437 -19 3 C-12.49363677 -0.41908666 -7.1143317 -1.48215244 0 0 Z " fill="#E7D4CF" transform="translate(90,203)"/>
</svg>
